# Blender v2.79 (sub 0) OBJ File: 'Window.blend'
# www.blender.org
mtllib jendela.mtl
o Cube
v 3.734130 0.961304 -0.248558
v 3.734130 0.961304 3.734130
v 3.496804 0.961304 3.734129
v 3.496806 0.961304 -0.248560
v 3.734132 8.429564 -0.248557
v 3.734128 8.429564 3.734132
v 3.496803 8.429564 3.734128
v 3.496805 8.429564 -0.248558
v 3.734132 8.200412 -0.248557
v 3.734128 8.200412 3.734132
v 3.496803 8.200412 3.734128
v 3.496805 8.200412 -0.248559
v 3.734130 0.961304 -0.050559
v 3.496806 0.961304 -0.050560
v 3.734132 8.429564 -0.050557
v 3.496805 8.429564 -0.050559
v 3.734132 8.200412 -0.050557
v 3.496805 8.200412 -0.050559
v 3.734130 0.961304 3.533096
v 3.734128 8.429564 3.533098
v 3.734128 8.200412 3.533098
v 3.496804 0.961304 3.533095
v 3.496803 8.429564 3.533094
v 3.496803 8.200412 3.533094
v 3.734130 1.215858 -0.248558
v 3.734130 1.215858 3.734130
v 3.496804 1.215858 3.734129
v 3.496806 1.215858 -0.248560
v 3.734130 1.215858 -0.050558
v 3.496806 1.215858 -0.050560
v 3.734130 1.215858 3.533096
v 3.496804 1.215858 3.533095
v 3.734132 6.572918 -0.248557
v 3.734128 6.572918 3.734132
v 3.496803 6.572918 3.734129
v 3.496805 6.572918 -0.248559
v 3.734131 6.572918 -0.050557
v 3.496805 6.572918 -0.050559
v 3.734128 6.572918 3.533098
v 3.496803 6.572918 3.533094
v 3.734131 4.758473 -0.248558
v 3.734129 4.758473 3.734131
v 3.496803 4.758473 3.734129
v 3.496805 4.758473 -0.248559
v 3.734131 4.758473 -0.050558
v 3.496805 4.758473 -0.050559
v 3.734129 4.758473 3.533097
v 3.496803 4.758473 3.533095
v 3.734131 2.987166 -0.248558
v 3.734129 2.987166 3.734131
v 3.496803 2.987166 3.734129
v 3.496805 2.987166 -0.248560
v 3.734131 2.987166 -0.050558
v 3.496805 2.987166 -0.050560
v 3.734129 2.987166 3.533097
v 3.496804 2.987166 3.533095
v 3.734130 0.961304 1.932618
v 3.734130 8.429564 1.932619
v 3.734130 8.200412 1.932619
v 3.496805 0.961304 1.932616
v 3.496804 8.429564 1.932617
v 3.496804 8.200412 1.932617
v 3.496805 1.215858 1.932616
v 3.734130 1.215858 1.932618
v 3.496804 6.572918 1.932617
v 3.734130 6.572918 1.932619
v 3.496804 4.758473 1.932616
v 3.734130 4.758473 1.932619
v 3.496804 2.987166 1.932616
v 3.734130 2.987166 1.932618
v 3.734130 0.961304 1.583900
v 3.734130 8.429564 1.583902
v 3.734130 8.200412 1.583902
v 3.496805 0.961304 1.583899
v 3.496804 8.429564 1.583900
v 3.496804 8.200412 1.583900
v 3.496805 1.215858 1.583899
v 3.496804 6.572918 1.583899
v 3.496804 4.758473 1.583899
v 3.496805 2.987166 1.583899
v 3.734130 1.215858 1.583901
v 3.734130 6.572918 1.583902
v 3.734130 4.758473 1.583901
v 3.734130 2.987166 1.583901
v 3.734132 6.388113 -0.248557
v 3.734128 6.388113 3.734132
v 3.496803 6.388113 3.734129
v 3.496805 6.388113 -0.248559
v 3.734131 6.388113 -0.050557
v 3.496805 6.388113 -0.050559
v 3.734128 6.388113 3.533098
v 3.496803 6.388113 3.533094
v 3.496804 6.388113 1.932617
v 3.734130 6.388113 1.932619
v 3.496804 6.388113 1.583899
v 3.734130 6.388113 1.583902
v 3.734131 4.555511 -0.248558
v 3.734129 4.555511 3.734131
v 3.496803 4.555511 3.734129
v 3.496805 4.555511 -0.248559
v 3.734131 4.555511 -0.050558
v 3.496805 4.555511 -0.050560
v 3.734129 4.555511 3.533097
v 3.496803 4.555511 3.533095
v 3.496804 4.555511 1.932616
v 3.734130 4.555511 1.932619
v 3.496804 4.555511 1.583899
v 3.734130 4.555511 1.583901
v 3.734131 2.821576 -0.248558
v 3.734129 2.821576 3.734131
v 3.496803 2.821576 3.734129
v 3.496805 2.821576 -0.248560
v 3.734131 2.821576 -0.050558
v 3.496805 2.821576 -0.050560
v 3.734129 2.821576 3.533097
v 3.496804 2.821576 3.533095
v 3.496804 2.821576 1.932616
v 3.734130 2.821576 1.932618
v 3.496805 2.821576 1.583899
v 3.734130 2.821576 1.583901
v 3.560588 8.200412 -0.050557
v 3.560584 8.200412 3.533098
v 3.560586 1.215858 -0.050559
v 3.560586 1.215858 3.533096
v 3.560587 6.572918 -0.050557
v 3.560585 6.572918 3.533097
v 3.560587 4.758473 -0.050558
v 3.560585 4.758473 3.533097
v 3.560587 2.987166 -0.050558
v 3.560585 2.987166 3.533096
v 3.560586 8.200412 1.932619
v 3.560586 1.215858 1.932618
v 3.560586 6.572918 1.932619
v 3.560586 4.758473 1.932618
v 3.560586 2.987166 1.932618
v 3.560586 8.200412 1.583902
v 3.560586 1.215858 1.583901
v 3.560586 6.572918 1.583902
v 3.560586 4.758473 1.583901
v 3.560586 2.987166 1.583901
v 3.560587 6.388113 -0.050558
v 3.560585 6.388113 3.533097
v 3.560586 6.388113 1.932619
v 3.560586 6.388113 1.583902
v 3.560587 4.555511 -0.050558
v 3.560585 4.555511 3.533097
v 3.560586 4.555511 1.932618
v 3.560586 4.555511 1.583901
v 3.560587 2.821576 -0.050558
v 3.560585 2.821576 3.533096
v 3.560586 2.821576 1.932618
v 3.560586 2.821576 1.583901
v 3.577861 8.200412 -0.050559
v 3.577859 8.200412 3.533094
v 3.577862 1.215858 -0.050560
v 3.577860 1.215858 3.533095
v 3.577861 6.572918 -0.050559
v 3.577859 6.572918 3.533094
v 3.577862 4.758473 -0.050559
v 3.577860 4.758473 3.533095
v 3.577862 2.987166 -0.050560
v 3.577860 2.987166 3.533095
v 3.577860 8.200412 1.932617
v 3.577861 1.215858 1.932616
v 3.577860 6.572918 1.932617
v 3.577861 4.758473 1.932616
v 3.577861 2.987166 1.932616
v 3.577860 8.200412 1.583900
v 3.577861 1.215858 1.583899
v 3.577861 6.572918 1.583899
v 3.577861 4.758473 1.583899
v 3.577861 2.987166 1.583899
v 3.577861 6.388113 -0.050559
v 3.577859 6.388113 3.533094
v 3.577860 6.388113 1.932617
v 3.577861 6.388113 1.583899
v 3.577862 4.555511 -0.050560
v 3.577860 4.555511 3.533095
v 3.577861 4.555511 1.932616
v 3.577861 4.555511 1.583899
v 3.577862 2.821576 -0.050560
v 3.577860 2.821576 3.533095
v 3.577861 2.821576 1.932616
v 3.577861 2.821576 1.583899
vt 0.893279 0.326073
vt 0.893332 0.343355
vt 0.872931 0.343418
vt 0.872878 0.326136
vt 0.893385 0.326074
vt 0.913786 0.326136
vt 0.913734 0.343418
vt 0.893332 0.343355
vt 0.503045 0.572793
vt 0.503098 0.590125
vt 0.487893 0.590171
vt 0.487840 0.572839
vt 0.447072 0.124536
vt 0.447027 0.109721
vt 0.462370 0.109674
vt 0.462416 0.124489
vt 0.570851 0.581360
vt 0.570906 0.598992
vt 0.555670 0.599039
vt 0.555616 0.581407
vt 0.431633 0.126131
vt 0.431683 0.109674
vt 0.447027 0.109721
vt 0.446976 0.126178
vt 0.502668 0.449698
vt 0.487462 0.449745
vt 0.447395 0.229756
vt 0.462738 0.229709
vt 0.570467 0.456131
vt 0.555232 0.456178
vt 0.430202 0.592508
vt 0.430247 0.577693
vt 0.445591 0.577740
vt 0.445546 0.592555
vt 0.892282 0.022809
vt 0.892334 0.039830
vt 0.871933 0.039892
vt 0.871880 0.022872
vt 0.894382 0.000988
vt 0.914784 0.001050
vt 0.914732 0.018071
vt 0.894330 0.018009
vt 0.487122 0.576208
vt 0.487175 0.593361
vt 0.472354 0.593406
vt 0.472301 0.576253
vt 0.696616 0.580974
vt 0.696670 0.598607
vt 0.486748 0.454386
vt 0.471928 0.454431
vt 0.469618 0.257988
vt 0.469872 0.340805
vt 0.465747 0.340818
vt 0.465493 0.258001
vt 0.892857 0.188490
vt 0.872456 0.188553
vt 0.893807 0.188490
vt 0.914209 0.188553
vt 0.503110 0.272778
vt 0.472005 0.273054
vt 0.470075 0.055804
vt 0.501180 0.055528
vt 0.652638 0.543083
vt 0.652774 0.498585
vt 0.657499 0.498599
vt 0.657363 0.543098
vt 0.862067 0.580467
vt 0.862121 0.598099
vt 0.846652 0.598147
vt 0.846598 0.580514
vt 0.861683 0.455238
vt 0.846214 0.455285
vt 0.431314 0.229943
vt 0.446658 0.229990
vt 0.501366 0.025267
vt 0.501425 0.044520
vt 0.486219 0.044567
vt 0.486160 0.025314
vt 0.448508 0.592555
vt 0.448457 0.576097
vt 0.463801 0.576050
vt 0.463851 0.592508
vt 0.569142 0.024342
vt 0.569203 0.043929
vt 0.553967 0.043975
vt 0.553907 0.024388
vt 0.485460 0.034342
vt 0.485518 0.053396
vt 0.470698 0.053441
vt 0.470639 0.034387
vt 0.694907 0.023956
vt 0.694967 0.043543
vt 0.466888 0.345153
vt 0.507465 0.346329
vt 0.500070 0.601455
vt 0.459492 0.600279
vt 0.860358 0.023448
vt 0.860418 0.043035
vt 0.844949 0.043083
vt 0.844889 0.023496
vt 0.502625 0.435721
vt 0.487420 0.435767
vt 0.447432 0.241704
vt 0.462775 0.241657
vt 0.570424 0.441911
vt 0.555188 0.441958
vt 0.486706 0.440553
vt 0.471885 0.440598
vt 0.481860 0.433950
vt 0.481887 0.442785
vt 0.403747 0.443025
vt 0.403719 0.434189
vt 0.487587 0.283001
vt 0.459430 0.283432
vt 0.455697 0.039579
vt 0.483855 0.039148
vt 0.861639 0.441018
vt 0.846170 0.441066
vt 0.430570 0.472473
vt 0.445914 0.472520
vt 0.430607 0.460525
vt 0.430930 0.355167
vt 0.446274 0.355214
vt 0.445950 0.460572
vt 0.502199 0.297113
vt 0.502247 0.312464
vt 0.487041 0.312510
vt 0.486994 0.297159
vt 0.447795 0.360184
vt 0.447755 0.347062
vt 0.463098 0.347015
vt 0.463138 0.360137
vt 0.569991 0.300901
vt 0.570039 0.316518
vt 0.554804 0.316564
vt 0.554756 0.300947
vt 0.486285 0.303378
vt 0.486332 0.318570
vt 0.471511 0.318615
vt 0.471464 0.303423
vt 0.481591 0.346337
vt 0.481621 0.356040
vt 0.403480 0.356280
vt 0.403451 0.346576
vt 0.531891 0.287434
vt 0.499702 0.288313
vt 0.492767 0.034487
vt 0.524956 0.033608
vt 0.861207 0.300007
vt 0.861255 0.315624
vt 0.845786 0.315672
vt 0.845738 0.300055
vt 0.430970 0.342045
vt 0.431282 0.240649
vt 0.446625 0.240696
vt 0.446314 0.342092
vt 0.501797 0.165968
vt 0.501836 0.178492
vt 0.486630 0.178538
vt 0.486592 0.166014
vt 0.448139 0.472286
vt 0.448106 0.461580
vt 0.463450 0.461533
vt 0.463482 0.472239
vt 0.569582 0.167482
vt 0.569621 0.180223
vt 0.554385 0.180270
vt 0.554346 0.167528
vt 0.485887 0.173588
vt 0.485925 0.185983
vt 0.471104 0.186028
vt 0.471066 0.173633
vt 0.481337 0.263441
vt 0.481361 0.271357
vt 0.403221 0.271597
vt 0.403196 0.263680
vt 0.502259 0.292910
vt 0.476788 0.292635
vt 0.479450 0.046455
vt 0.504920 0.046731
vt 0.860797 0.166588
vt 0.860836 0.179330
vt 0.845368 0.179377
vt 0.845329 0.166636
vt 0.723502 0.598524
vt 0.723448 0.580892
vt 0.478620 0.259376
vt 0.478371 0.340818
vt 0.474246 0.340805
vt 0.474496 0.259363
vt 0.892765 0.158513
vt 0.872364 0.158575
vt 0.893899 0.158513
vt 0.914300 0.158576
vt 0.503530 0.320113
vt 0.472425 0.320390
vt 0.528686 0.461107
vt 0.529060 0.583221
vt 0.502896 0.583301
vt 0.502521 0.461188
vt 0.721800 0.043460
vt 0.721739 0.023874
vt 0.541773 0.295227
vt 0.577190 0.296254
vt 0.575783 0.344772
vt 0.540366 0.343745
vt 0.575047 0.433664
vt 0.575074 0.442499
vt 0.498558 0.442734
vt 0.498531 0.433899
vt 0.523367 0.332218
vt 0.498790 0.332594
vt 0.498080 0.286220
vt 0.522657 0.285844
vt 0.574778 0.346051
vt 0.574808 0.355754
vt 0.498292 0.355989
vt 0.498262 0.346285
vt 0.532794 0.339236
vt 0.504699 0.340003
vt 0.503380 0.291732
vt 0.531476 0.290965
vt 0.574524 0.263155
vt 0.574548 0.271071
vt 0.498032 0.271306
vt 0.498008 0.263389
vt 0.467302 0.342766
vt 0.445071 0.342525
vt 0.445577 0.295708
vt 0.467808 0.295949
vt 0.498797 0.520541
vt 0.482126 0.520592
vt 0.892334 0.018009
vt 0.871933 0.018071
vt 0.505501 0.541976
vt 0.474396 0.542252
vt 0.893382 0.454057
vt 0.893516 0.410483
vt 0.898241 0.410498
vt 0.898107 0.454071
vt 0.476052 0.029022
vt 0.516629 0.030199
vt 0.509077 0.290741
vt 0.468499 0.289565
vt 0.492212 0.585163
vt 0.464054 0.585594
vt 0.460243 0.336563
vt 0.488400 0.336132
vt 0.540484 0.601954
vt 0.508295 0.602833
vt 0.501213 0.343618
vt 0.533402 0.342738
vt 0.498961 0.597955
vt 0.473490 0.597679
vt 0.476209 0.346273
vt 0.501679 0.346548
vt 0.472707 0.125942
vt 0.472453 0.208759
vt 0.468328 0.208746
vt 0.468582 0.125929
vt 0.461256 0.425992
vt 0.462710 0.344798
vt 0.471514 0.344955
vt 0.470060 0.426150
vt 0.482775 0.507480
vt 0.482530 0.587287
vt 0.478405 0.587275
vt 0.478650 0.507467
vt 0.528268 0.324967
vt 0.528643 0.447241
vt 0.502479 0.447322
vt 0.502103 0.325047
vt 0.486642 0.509656
vt 0.485218 0.589221
vt 0.476414 0.589063
vt 0.477838 0.509498
vt 0.481451 0.128952
vt 0.481206 0.208759
vt 0.477081 0.208746
vt 0.477326 0.128939
vt 0.468273 0.510570
vt 0.467314 0.592039
vt 0.458509 0.591935
vt 0.459468 0.510467
vt 0.473777 0.425746
vt 0.474027 0.507455
vt 0.469903 0.507467
vt 0.469652 0.425758
vt 0.527861 0.192063
vt 0.528221 0.309738
vt 0.502057 0.309818
vt 0.501696 0.192143
vt 0.472470 0.263699
vt 0.471515 0.344901
vt 0.462710 0.344798
vt 0.463665 0.263595
vt 0.463945 0.043975
vt 0.463694 0.125684
vt 0.459569 0.125671
vt 0.459820 0.043962
vt 0.472261 0.169549
vt 0.470802 0.251010
vt 0.461998 0.250852
vt 0.463457 0.169392
vt 0.465238 0.341063
vt 0.465492 0.423990
vt 0.461368 0.424002
vt 0.461113 0.341076
vt 0.527453 0.059159
vt 0.527822 0.179638
vt 0.501658 0.179719
vt 0.501288 0.059239
vt 0.497773 0.186623
vt 0.481101 0.186674
vt 0.883799 0.498453
vt 0.883663 0.454086
vt 0.888388 0.454071
vt 0.888524 0.498439
vt 0.869974 0.696571
vt 0.870090 0.734432
vt 0.832858 0.734546
vt 0.832741 0.696685
vt 0.661016 0.808592
vt 0.613166 0.808739
vt 0.613018 0.760684
vt 0.660868 0.760538
vt 0.732764 0.705512
vt 0.732849 0.732929
vt 0.705922 0.733012
vt 0.705838 0.705594
vt 0.665948 0.788091
vt 0.638531 0.788175
vt 0.638447 0.760677
vt 0.665864 0.760593
vt 0.663370 0.729659
vt 0.641239 0.729727
vt 0.641170 0.707143
vt 0.663301 0.707075
vt 0.629884 0.730138
vt 0.607753 0.730206
vt 0.607682 0.707143
vt 0.629813 0.707075
vt 0.729940 0.719668
vt 0.729983 0.733894
vt 0.715804 0.733937
vt 0.715761 0.719712
vt 0.736573 0.705101
vt 0.722347 0.705144
vt 0.722303 0.690664
vt 0.736528 0.690621
vt 0.568158 0.570302
vt 0.523452 0.569000
vt 0.523593 0.564152
vt 0.568299 0.565454
vt 0.457123 0.515490
vt 0.549651 0.512019
vt 0.550019 0.521843
vt 0.457492 0.525314
vt 0.888237 0.498599
vt 0.888100 0.542966
vt 0.883376 0.542952
vt 0.883512 0.498585
vt 0.910542 0.306390
vt 0.910767 0.380033
vt 0.902948 0.380057
vt 0.902722 0.306414
vt 0.459486 0.509199
vt 0.460945 0.427739
vt 0.469749 0.427896
vt 0.468290 0.509357
vt 0.478923 0.229353
vt 0.478712 0.160635
vt 0.486316 0.160612
vt 0.486527 0.229329
vt 0.480714 0.210113
vt 0.482139 0.130549
vt 0.490943 0.130706
vt 0.489519 0.210271
vt 0.479852 0.555176
vt 0.480063 0.486459
vt 0.487667 0.486482
vt 0.487456 0.555200
vt 0.530828 0.311777
vt 0.576289 0.313101
vt 0.576148 0.317949
vt 0.530687 0.316625
vt 0.544296 0.527392
vt 0.544521 0.600721
vt 0.536701 0.600745
vt 0.536476 0.527416
vt 0.550347 0.532237
vt 0.457800 0.535141
vt 0.457492 0.525314
vt 0.550039 0.522411
vt 0.549255 0.500539
vt 0.456708 0.503443
vt 0.456400 0.493616
vt 0.548946 0.490713
vt 0.511476 0.600745
vt 0.511251 0.527416
vt 0.519070 0.527392
vt 0.519295 0.600721
vt 0.444089 0.344521
vt 0.443113 0.427447
vt 0.434308 0.427344
vt 0.435284 0.344417
vt 0.472495 0.484717
vt 0.472710 0.414592
vt 0.480314 0.414615
vt 0.480099 0.484740
vt 0.478497 0.229353
vt 0.478712 0.299478
vt 0.471108 0.299501
vt 0.470893 0.229376
vt 0.883376 0.587334
vt 0.883512 0.542966
vt 0.888237 0.542981
vt 0.888100 0.587348
vt 0.474050 0.048947
vt 0.472591 0.130407
vt 0.463787 0.130249
vt 0.465246 0.048789
vt 0.883663 0.454057
vt 0.883799 0.409689
vt 0.888524 0.409704
vt 0.888388 0.454071
vt 0.883527 0.454071
vt 0.883663 0.498570
vt 0.878938 0.498585
vt 0.878802 0.454086
vt 0.530665 0.317301
vt 0.576117 0.318904
vt 0.575946 0.323751
vt 0.530494 0.322148
vt 0.894677 0.370320
vt 0.894903 0.296676
vt 0.902722 0.296700
vt 0.902496 0.370344
vt 0.897112 0.295239
vt 0.897246 0.338813
vt 0.892521 0.338827
vt 0.892387 0.295254
vt 0.410796 0.564097
vt 0.496076 0.567105
vt 0.495750 0.576352
vt 0.410470 0.573344
vt 0.608241 0.760622
vt 0.656257 0.760770
vt 0.656109 0.808991
vt 0.608093 0.808844
vt 0.869657 0.702619
vt 0.869566 0.732170
vt 0.840506 0.732081
vt 0.840596 0.702530
vt 0.660182 0.805056
vt 0.614430 0.805196
vt 0.614289 0.759309
vt 0.660041 0.759169
vt 0.655613 0.689628
vt 0.655743 0.732256
vt 0.613879 0.732384
vt 0.613748 0.689756
vt 0.646006 0.726653
vt 0.630584 0.726700
vt 0.630535 0.710629
vt 0.645956 0.710581
vt 0.629931 0.726318
vt 0.614510 0.726366
vt 0.614462 0.710629
vt 0.629883 0.710581
vt 0.749108 0.790195
vt 0.740223 0.790168
vt 0.740250 0.781123
vt 0.749136 0.781150
vt 0.731366 0.781162
vt 0.731339 0.772276
vt 0.740195 0.772249
vt 0.740223 0.781135
vt 0.456988 0.340818
vt 0.456733 0.257647
vt 0.460858 0.257634
vt 0.461113 0.340805
vt 0.472957 0.208759
vt 0.472707 0.127317
vt 0.476832 0.127304
vt 0.477081 0.208746
vt 0.456733 0.340831
vt 0.456478 0.424002
vt 0.452354 0.423990
vt 0.452609 0.340818
vt 0.469652 0.424541
vt 0.469398 0.507467
vt 0.465273 0.507455
vt 0.465527 0.424528
vt 0.461148 0.590651
vt 0.460893 0.507480
vt 0.465018 0.507467
vt 0.465273 0.590639
vt 0.472945 0.125417
vt 0.472695 0.043975
vt 0.476820 0.043962
vt 0.477070 0.125405
vt 0.469398 0.507467
vt 0.469652 0.590394
vt 0.465527 0.590406
vt 0.465273 0.507480
vt 0.461368 0.340818
vt 0.461113 0.257647
vt 0.465238 0.257634
vt 0.465493 0.340805
vt 0.465273 0.424296
vt 0.465018 0.507467
vt 0.460893 0.507455
vt 0.461148 0.424283
vt 0.461113 0.340831
vt 0.460858 0.424002
vt 0.456733 0.423990
vt 0.456989 0.340818
vt 0.468328 0.125942
vt 0.468074 0.208868
vt 0.463949 0.208855
vt 0.464203 0.125929
vt 0.469871 0.341076
vt 0.469617 0.423893
vt 0.465492 0.423880
vt 0.465746 0.341063
vt 0.478620 0.342451
vt 0.478370 0.423893
vt 0.474246 0.423880
vt 0.474495 0.342438
vt 0.470121 0.423893
vt 0.469871 0.342451
vt 0.473996 0.342438
vt 0.474245 0.423880
vt 0.481194 0.045598
vt 0.481439 0.125405
vt 0.477315 0.125417
vt 0.477070 0.045610
vt 0.468069 0.043962
vt 0.468320 0.125671
vt 0.464195 0.125684
vt 0.463945 0.043975
vt 0.482526 0.425746
vt 0.482771 0.505553
vt 0.478647 0.505566
vt 0.478402 0.425758
vt 0.473777 0.507467
vt 0.474031 0.590284
vt 0.469906 0.590297
vt 0.469652 0.507480
vt 0.472695 0.043975
vt 0.472445 0.125684
vt 0.468320 0.125671
vt 0.468571 0.043962
vt 0.478402 0.425758
vt 0.478152 0.507201
vt 0.474027 0.507188
vt 0.474277 0.425746
vt 0.470121 0.340818
vt 0.469872 0.259376
vt 0.473996 0.259363
vt 0.474246 0.340805
vt 0.478405 0.507480
vt 0.478155 0.588922
vt 0.474031 0.588910
vt 0.474280 0.507467
vt 0.456733 0.257647
vt 0.456478 0.340818
vt 0.452353 0.340805
vt 0.452609 0.257634
vt 0.459824 0.208868
vt 0.459569 0.125697
vt 0.463694 0.125684
vt 0.463949 0.208855
vn 0.0000 -1.0000 0.0000
vn 0.0000 1.0000 0.0000
vn 1.0000 0.0000 0.0000
vn -0.0000 0.0000 1.0000
vn -1.0000 -0.0000 0.0000
vn 0.0000 0.0000 -1.0000
usemtl Material
s off
f 19/1/1 2/2/1 3/3/1 22/4/1
f 20/5/2 23/6/2 7/7/2 6/8/2
f 21/9/3 20/10/3 6/11/3 10/12/3
f 10/13/4 6/14/4 7/15/4 11/16/4
f 18/17/5 16/18/5 8/19/5 12/20/5
f 25/21/6 1/22/6 4/23/6 28/24/6
f 39/25/3 21/9/3 10/12/3 34/26/3
f 34/27/4 10/13/4 11/16/4 35/28/4
f 38/29/5 18/17/5 12/20/5 36/30/5
f 5/31/6 9/32/6 12/33/6 8/34/6
f 1/35/1 13/36/1 14/37/1 4/38/1
f 5/39/2 8/40/2 16/41/2 15/42/2
f 9/43/3 5/44/3 15/45/3 17/46/3
f 76/47/5 75/48/5 16/18/5 18/17/5
f 33/49/3 9/43/3 17/46/3 37/50/3
f 18/51/4 38/52/4 157/53/4 153/54/4
f 57/55/1 19/1/1 22/4/1 60/56/1
f 58/57/2 61/58/2 23/6/2 20/5/2
f 59/59/3 58/60/3 20/61/3 21/62/3
f 83/63/2 45/64/2 127/65/2 139/66/2
f 11/67/5 7/68/5 23/69/5 24/70/5
f 35/71/5 11/67/5 24/70/5 40/72/5
f 109/73/6 25/21/6 28/24/6 112/74/6
f 19/75/3 31/76/3 26/77/3 2/78/3
f 2/79/4 26/80/4 27/81/4 3/82/4
f 14/83/5 30/84/5 28/85/5 4/86/5
f 1/87/3 25/88/3 29/89/3 13/90/3
f 74/91/5 77/92/5 30/84/5 14/83/5
f 57/93/3 64/94/3 31/95/3 19/96/3
f 3/97/5 27/98/5 32/99/5 22/100/5
f 91/101/3 39/25/3 34/26/3 86/102/3
f 86/103/4 34/27/4 35/28/4 87/104/4
f 90/105/5 38/29/5 36/30/5 88/106/5
f 85/107/3 33/49/3 37/50/3 89/108/3
f 95/109/5 78/110/5 38/111/5 90/112/5
f 94/113/3 66/114/3 39/115/3 91/116/3
f 87/117/5 35/71/5 40/72/5 92/118/5
f 9/32/6 33/119/6 36/120/6 12/33/6
f 85/121/6 41/122/6 44/123/6 88/124/6
f 103/125/3 47/126/3 42/127/3 98/128/3
f 98/129/4 42/130/4 43/131/4 99/132/4
f 102/133/5 46/134/5 44/135/5 100/136/5
f 97/137/3 41/138/3 45/139/3 101/140/3
f 107/141/5 79/142/5 46/143/5 102/144/5
f 106/145/3 68/146/3 47/147/3 103/148/3
f 99/149/5 43/150/5 48/151/5 104/152/5
f 97/153/6 49/154/6 52/155/6 100/156/6
f 115/157/3 55/158/3 50/159/3 110/160/3
f 110/161/4 50/162/4 51/163/4 111/164/4
f 114/165/5 54/166/5 52/167/5 112/168/5
f 109/169/3 49/170/3 53/171/3 113/172/3
f 119/173/5 80/174/5 54/175/5 114/176/5
f 118/177/3 70/178/3 55/179/3 115/180/3
f 111/181/5 51/182/5 56/183/5 116/184/5
f 24/70/5 23/69/5 61/185/5 62/186/5
f 65/187/2 40/188/2 158/189/2 165/190/2
f 71/191/1 57/55/1 60/56/1 74/192/1
f 72/193/2 75/194/2 61/58/2 58/57/2
f 73/195/3 72/196/3 58/60/3 59/59/3
f 82/197/3 73/198/3 59/199/3 66/200/3
f 22/100/5 32/99/5 63/201/5 60/202/5
f 71/203/3 81/204/3 64/205/3 57/206/3
f 92/207/5 40/208/5 65/209/5 93/210/5
f 96/211/3 82/212/3 66/213/3 94/214/3
f 104/215/5 48/216/5 67/217/5 105/218/5
f 108/219/3 83/220/3 68/221/3 106/222/3
f 116/223/5 56/224/5 69/225/5 117/226/5
f 120/227/3 84/228/3 70/229/3 118/230/3
f 62/186/5 61/185/5 75/48/5 76/47/5
f 65/209/5 62/231/5 76/232/5 78/110/5
f 60/202/5 63/201/5 77/92/5 74/91/5
f 93/210/5 65/209/5 78/110/5 95/109/5
f 105/218/5 67/217/5 79/142/5 107/141/5
f 117/226/5 69/225/5 80/174/5 119/173/5
f 13/233/1 71/191/1 74/192/1 14/234/1
f 15/42/2 16/41/2 75/194/2 72/193/2
f 17/235/3 15/236/3 72/196/3 73/195/3
f 47/237/2 68/238/2 134/239/2 128/240/2
f 13/241/3 29/242/3 81/243/3 71/244/3
f 89/245/3 37/246/3 82/247/3 96/248/3
f 101/249/3 45/250/3 83/251/3 108/252/3
f 113/253/3 53/254/3 84/255/3 120/256/3
f 47/126/3 91/101/3 86/102/3 42/127/3
f 42/130/4 86/103/4 87/104/4 43/131/4
f 46/134/5 90/105/5 88/106/5 44/135/5
f 41/138/3 85/107/3 89/108/3 45/139/3
f 78/257/6 76/258/6 168/259/6 170/260/6
f 31/261/2 64/262/2 132/263/2 124/264/2
f 43/150/5 87/117/5 92/118/5 48/151/5
f 33/119/6 85/121/6 88/124/6 36/120/6
f 80/265/6 107/266/6 180/267/6 172/268/6
f 83/269/3 96/270/3 94/271/3 68/272/3
f 67/217/5 93/210/5 95/109/5 79/142/5
f 53/273/4 101/274/4 145/275/4 129/276/4
f 55/158/3 103/125/3 98/128/3 50/159/3
f 50/162/4 98/129/4 99/132/4 51/163/4
f 54/166/5 102/133/5 100/136/5 52/167/5
f 49/170/3 97/137/3 101/140/3 53/171/3
f 56/277/6 104/278/6 178/279/6 162/280/6
f 120/281/6 81/282/6 137/283/6 152/284/6
f 51/182/5 99/149/5 104/152/5 56/183/5
f 41/122/6 97/153/6 100/156/6 44/123/6
f 117/285/4 63/286/4 164/287/4 183/288/4
f 84/289/3 108/290/3 106/291/3 70/292/3
f 69/225/5 105/218/5 107/141/5 80/174/5
f 118/293/1 115/294/1 150/295/1 151/296/1
f 49/154/6 109/73/6 112/74/6 52/155/6
f 31/76/3 115/157/3 110/160/3 26/77/3
f 26/80/4 110/161/4 111/164/4 27/81/4
f 30/84/5 114/165/5 112/168/5 28/85/5
f 25/88/3 109/169/3 113/172/3 29/89/3
f 32/297/6 116/298/6 182/299/6 156/300/6
f 29/301/4 113/302/4 149/303/4 123/304/4
f 27/98/5 111/181/5 116/184/5 32/99/5
f 90/305/4 46/306/4 159/307/4 173/308/4
f 81/309/3 120/310/3 118/311/3 64/312/3
f 63/313/5 117/226/5 119/173/5 77/314/5
f 68/315/4 94/316/4 143/317/4 134/318/4
f 133/319/3 131/320/3 122/321/3 126/322/3
f 125/323/3 121/324/3 136/325/3 138/326/3
f 134/327/3 143/328/3 142/329/3 128/330/3
f 127/331/3 141/332/3 144/333/3 139/334/3
f 135/335/3 147/336/3 146/337/3 130/338/3
f 129/339/3 145/340/3 148/341/3 140/342/3
f 132/343/3 151/344/3 150/345/3 124/346/3
f 123/347/3 149/348/3 152/349/3 137/350/3
f 59/351/1 21/352/1 122/353/1 131/354/1
f 113/355/1 120/356/1 152/357/1 149/358/1
f 45/359/4 89/360/4 141/361/4 127/362/4
f 17/363/1 73/364/1 136/365/1 121/366/1
f 115/367/6 31/368/6 124/369/6 150/370/6
f 70/371/4 106/372/4 147/373/4 135/374/4
f 108/375/6 84/376/6 140/377/6 148/378/6
f 103/379/6 55/380/6 130/381/6 146/382/6
f 66/383/4 59/384/4 131/385/4 133/386/4
f 73/387/6 82/388/6 138/389/6 136/390/6
f 84/391/2 53/392/2 129/393/2 140/394/2
f 81/395/2 29/396/2 123/397/2 137/398/2
f 37/399/4 17/400/4 121/401/4 125/402/4
f 101/403/1 108/404/1 148/405/1 145/406/1
f 55/407/2 70/408/2 135/409/2 130/410/2
f 106/411/1 103/412/1 146/413/1 147/414/1
f 91/415/6 47/416/6 128/417/6 142/418/6
f 64/419/4 118/420/4 151/421/4 132/422/4
f 96/423/6 83/424/6 139/425/6 144/426/6
f 89/427/1 96/428/1 144/429/1 141/430/1
f 21/431/6 39/432/6 126/433/6 122/434/6
f 82/435/2 37/436/2 125/437/2 138/438/2
f 94/439/1 91/440/1 142/441/1 143/442/1
f 39/443/2 66/444/2 133/445/2 126/446/2
f 170/447/5 168/448/5 153/449/5 157/450/5
f 158/451/5 154/452/5 163/453/5 165/454/5
f 171/455/5 176/456/5 173/457/5 159/458/5
f 160/459/5 174/460/5 175/461/5 166/462/5
f 172/463/5 180/464/5 177/465/5 161/466/5
f 162/467/5 178/468/5 179/469/5 167/470/5
f 169/471/5 184/472/5 181/473/5 155/474/5
f 156/475/5 182/476/5 183/477/5 164/478/5
f 95/479/1 90/480/1 173/481/1 176/482/1
f 24/483/1 62/484/1 163/485/1 154/486/1
f 38/487/2 78/488/2 170/489/2 157/490/2
f 48/491/6 92/492/6 174/493/6 160/494/6
f 76/495/1 18/496/1 153/497/1 168/498/1
f 116/499/1 117/500/1 183/501/1 182/502/1
f 93/503/4 67/504/4 166/505/4 175/506/4
f 119/507/1 114/508/1 181/509/1 184/510/1
f 30/511/2 77/512/2 169/513/2 155/514/2
f 46/515/2 79/516/2 171/517/2 159/518/2
f 79/519/6 95/520/6 176/521/6 171/522/6
f 40/523/6 24/524/6 154/525/6 158/526/6
f 67/527/2 48/528/2 160/529/2 166/530/2
f 104/531/1 105/532/1 179/533/1 178/534/1
f 105/535/4 69/536/4 167/537/4 179/538/4
f 114/539/4 30/540/4 155/541/4 181/542/4
f 102/543/4 54/544/4 161/545/4 177/546/4
f 62/547/4 65/548/4 165/549/4 163/550/4
f 77/551/6 119/552/6 184/553/6 169/554/6
f 69/555/2 56/556/2 162/557/2 167/558/2
f 92/559/1 93/560/1 175/561/1 174/562/1
f 63/563/2 32/564/2 156/565/2 164/566/2
f 54/567/2 80/568/2 172/569/2 161/570/2
f 107/571/1 102/572/1 177/573/1 180/574/1
